<svg xmlns="http://www.w3.org/2000/svg" width="112" height="112" viewBox="-6 -6 112 112"><path d="M50 88 C20 66 6 48 6 30 C6 16 17 6 30 6 C40 6 46 12 50 20 C54 12 60 6 70 6 C83 6 94 16 94 30 C94 48 80 66 50 88 Z" transform="translate(0 8)" style="fill: #C9212F; stroke: #7A1018; stroke-width: 6; stroke-linejoin: round"/><path d="M50 88 C20 66 6 48 6 30 C6 16 17 6 30 6 C40 6 46 12 50 20 C54 12 60 6 70 6 C83 6 94 16 94 30 C94 48 80 66 50 88 Z" style="fill: #F5414F; stroke: #7A1018; stroke-width: 6; stroke-linejoin: round"/><path d="M22 30 C22 22 27 18 33 18" style="fill: none; stroke: #FFFFFF; stroke-width: 8; stroke-linecap: round; opacity: .7"/></svg>