<svg xmlns="http://www.w3.org/2000/svg" viewBox="0 0 230 150" width="230" height="150">
  <style>
    .ck{stroke:#5A3410;stroke-width:4;stroke-linecap:round;stroke-linejoin:round}
    .ckt{stroke:#5A3410;stroke-width:3;stroke-linecap:round;stroke-linejoin:round;fill:none}
  </style>

          <g class="wiggle" style="transform-origin: 100% 50%">
            <path class="ck" d="M66 72 L14 34 L22 52 L6 60 L20 72 L6 84 L22 92 L14 110 Z" style="fill: #7DDBB6"></path>
            <path d="M58 72 L24 48 M58 72 L18 72 M58 72 L24 96" style="stroke: #3FB487; stroke-width: 3; stroke-linecap: round; fill: none"></path>
          </g>
          <g class="wiggle" style="transform-origin: 0% 50%">
            <path class="ck" d="M164 72 L216 34 L208 52 L224 60 L210 72 L224 84 L208 92 L216 110 Z" style="fill: #7DDBB6"></path>
            <path d="M172 72 L206 48 M172 72 L212 72 M172 72 L206 96" style="stroke: #3FB487; stroke-width: 3; stroke-linecap: round; fill: none"></path>
          </g>
          <ellipse class="ck" cx="68" cy="72" rx="9" ry="14" style="fill: #FFD84D"></ellipse>
          <ellipse class="ck" cx="162" cy="72" rx="9" ry="14" style="fill: #FFD84D"></ellipse>
          <ellipse cx="115" cy="82" rx="54" ry="50" style="fill: #E07B1F"></ellipse>
          <ellipse class="ck" cx="115" cy="75" rx="54" ry="50" style="fill: #FFAE4F"></ellipse>
          <path d="M78 46 Q96 66 86 104" style="stroke: #FFFFFF; stroke-width: 9; stroke-linecap: round; fill: none; opacity: .75"></path>
          <path d="M152 46 Q134 66 144 104" style="stroke: #FFFFFF; stroke-width: 9; stroke-linecap: round; fill: none; opacity: .75"></path>
          <ellipse cx="94" cy="44" rx="14" ry="7" transform="rotate(-25 94 44)" style="fill: #FFFFFF; opacity: .85"></ellipse>
          <path class="ckt" d="M92 76 Q100 66 108 76" style="stroke-width: 5"></path>
          <path class="ckt" d="M122 76 Q130 66 138 76" style="stroke-width: 5"></path>
          <ellipse cx="88" cy="90" rx="9" ry="6" style="fill: #FF6B4A; opacity: .7"></ellipse>
          <ellipse cx="142" cy="90" rx="9" ry="6" style="fill: #FF6B4A; opacity: .7"></ellipse>
          <path d="M106 88 Q115 102 124 88 Z" style="fill: #C2410C; stroke: #5A3410; stroke-width: 3; stroke-linejoin: round"></path>
          <path d="M110 94 Q115 99 120 94" style="fill: #FFB59A; stroke: none"></path>
        
</svg>